<svg xmlns="http://www.w3.org/2000/svg" xmlns:xlink="http://www.w3.org/1999/xlink" viewBox="0 0 579.77 438.08"><defs><style>.cls-1{fill:#701a70;}.cls-2{fill:url(#linear-gradient);}.cls-3{opacity:0.53;fill:url(#linear-gradient-2);}.cls-4{opacity:0.33;fill:url(#linear-gradient-3);}</style><linearGradient id="linear-gradient" x1="357.33" y1="34.77" x2="147.33" y2="183.77" gradientUnits="userSpaceOnUse"><stop offset="0" stop-color="#cc00c6"/><stop offset="0.09" stop-color="#cf11b8"/><stop offset="0.72" stop-color="#e88c50"/><stop offset="1" stop-color="#f2bd27"/></linearGradient><linearGradient id="linear-gradient-2" x1="245.7" y1="105.64" x2="292.72" y2="177.85" gradientUnits="userSpaceOnUse"><stop offset="0" stop-color="#fff"/><stop offset="1" stop-color="#fff" stop-opacity="0"/></linearGradient><linearGradient id="linear-gradient-3" x1="195.03" y1="-59.45" x2="268.36" y2="69.22" xlink:href="#linear-gradient-2"/></defs><title>logo normal</title><g id="Layer_2" data-name="Layer 2"><g id="Layer_1-2" data-name="Layer 1"><path class="cls-1" d="M20.63,438.08H0V323.61H20.63v6l1.11-1c.39-.33.8-.65,1.22-1a36.49,36.49,0,0,1,9.7-4.62h0a33.73,33.73,0,0,1,11.16-1.7A37.48,37.48,0,0,1,54,322.71a32.39,32.39,0,0,1,8.74,3.83,38.73,38.73,0,0,1,8,7A31.12,31.12,0,0,1,76.08,342a61.15,61.15,0,0,1,3.39,11.13,58.68,58.68,0,0,1,1.17,11.72,55,55,0,0,1-2.52,16.71A53.22,53.22,0,0,1,71,396.07a29.06,29.06,0,0,1-11.57,9.38,39.16,39.16,0,0,1-16.31,3.18,40.14,40.14,0,0,1-11.45-1.54,25.47,25.47,0,0,1-8.88-4.51c-.35-.27-.61-.45-.76-.55a2.74,2.74,0,0,1-.38-.26,3.09,3.09,0,0,1-.35-.32,9.89,9.89,0,0,1-.67-.78Zm0-73.07A54.54,54.54,0,0,0,22,377.91a31.25,31.25,0,0,0,4,9.68l-.06-.06a23.88,23.88,0,0,0,6.49,6.38A13.77,13.77,0,0,0,40,396.19q7.37,0,13.79-7.66,5.79-6.91,5.78-23.28,0-18.9-6-25-6.78-6.94-13.32-7-4.68,0-10,3.81a13.85,13.85,0,0,0-3.71,4.27,39.73,39.73,0,0,0-3.3,7.07v-.06a49.6,49.6,0,0,0-1.87,7.84A54.89,54.89,0,0,0,20.63,365Z"/><path class="cls-1" d="M148.07,405.54q-6.31,1.57-10.93,2.33a48.89,48.89,0,0,1-7.77.76,44.05,44.05,0,0,1-8.53-.79,31.36,31.36,0,0,1-7.39-2.36,25.14,25.14,0,0,1-6-3.86,19.14,19.14,0,0,1-4.24-5.26,29.68,29.68,0,0,1-2.66-8.06,58.08,58.08,0,0,1-.9-10.87V336.06H85.54V323.61H99.69V304.33h20.62v19.28h23.78v12.45H120.31v37.55q0,11.11,1.4,14.8h0a31.65,31.65,0,0,0,2,3.77,6,6,0,0,0,1.9,2.08,16.47,16.47,0,0,0,3.45,1.43,12.68,12.68,0,0,0,3.45.5q3,0,15.66-4Z"/><path class="cls-1" d="M195.57,408.63a45.78,45.78,0,0,1-8.47-.78,48.38,48.38,0,0,1-7.94-2.22,43.12,43.12,0,0,1-7.16-3.48,41.85,41.85,0,0,1-6.17-4.55,42,42,0,0,1-9.05-14.22,53.22,53.22,0,0,1,0-36.79,41.32,41.32,0,0,1,9.05-14.16,42.24,42.24,0,0,1,13.3-8.09,45.28,45.28,0,0,1,16.44-2.95,46.19,46.19,0,0,1,16.48,2.86,39.75,39.75,0,0,1,13.21,8.18,41.34,41.34,0,0,1,9.06,14.16A49.83,49.83,0,0,1,237.59,365q0,20.73-12.33,32.64Q213.74,408.64,195.57,408.63Zm0-12.44q8.31,0,14.85-8.48,6-7.84,6-22.75t-6-22.64q-6.55-8.47-14.85-8.48a15.32,15.32,0,0,0-7.91,2.31,26.8,26.8,0,0,0-7,6.17h0a29.39,29.39,0,0,0-4.38,9.65,49.5,49.5,0,0,0-1.58,13,50.2,50.2,0,0,0,1.55,13,29.77,29.77,0,0,0,4.41,9.71h0a26.8,26.8,0,0,0,7,6.17A15.32,15.32,0,0,0,195.57,396.19Z"/><path class="cls-1" d="M300.23,323.61h20.62v82.74H300.23v-6.62q-.59.52-1.26,1c-.45.35-.91.72-1.37,1.1a35.22,35.22,0,0,1-9.35,5,28.66,28.66,0,0,1-10.64,1.75,40.14,40.14,0,0,1-12-1.69,30.2,30.2,0,0,1-9.46-4.79,23.52,23.52,0,0,1-6.84-10.4A47.61,47.61,0,0,1,247,375.91v-52.3h20.63v46.61q0,18.48,3.39,21.17a15.16,15.16,0,0,0,9.58,3.63,13.4,13.4,0,0,0,4.56-.91,24.52,24.52,0,0,0,5-2.48,18.56,18.56,0,0,0,3.68-3.69,34,34,0,0,0,3.62-6q2.81-5.67,2.81-17.6Z"/><path class="cls-1" d="M386.36,384.21H407v1.34a12.92,12.92,0,0,1-1.31,5.32,38.61,38.61,0,0,1-3.54,6,24.79,24.79,0,0,1-5,4.56,44.33,44.33,0,0,1-7.22,4.14q-7,3-17.47,3a48.5,48.5,0,0,1-17.82-3A32.58,32.58,0,0,1,342,397a45.27,45.27,0,0,1-7.8-14.25,57.8,57.8,0,0,1,0-35.42,45.34,45.34,0,0,1,7.8-14.22,32.48,32.48,0,0,1,12.68-8.64,48.49,48.49,0,0,1,17.82-3q10.58,0,18,3.1a29.52,29.52,0,0,1,11.6,8.18,27.91,27.91,0,0,1,3.65,6,14.64,14.64,0,0,1,1.31,5.78v1.29H386.36v-1.29c.15-3.29-.74-5.74-2.69-7.34q-3.85-3.28-10.46-3.29-7.89,0-14.61,7.37-6,6.32-6,23.75t6,23.86q6.72,7.37,14.61,7.37a19.11,19.11,0,0,0,5.84-.85,13.68,13.68,0,0,0,4.5-2.38,7.67,7.67,0,0,0,2.08-3.06,12.07,12.07,0,0,0,.73-4.34Z"/><path class="cls-1" d="M437.54,406.35H417V287.27h20.57v42.91l1.29-1.14c.47-.4.91-.76,1.34-1.07a35.13,35.13,0,0,1,9.47-4.89,31.92,31.92,0,0,1,11.1-1.69,39,39,0,0,1,8.36.88,32.27,32.27,0,0,1,7.36,2.54,28.19,28.19,0,0,1,6.08,4,22.06,22.06,0,0,1,4.44,5.25,29.35,29.35,0,0,1,2.86,8.41,59.28,59.28,0,0,1,1,11.39v52.49H470.21V359.67q0-11.4-1.29-15.31c-1.17-3.63-2.53-5.9-4.09-6.84a14.86,14.86,0,0,0-7.48-2.51,13.21,13.21,0,0,0-4.5.9,26.77,26.77,0,0,0-5,2.49,16.88,16.88,0,0,0-3.74,3.68,36.34,36.34,0,0,0-3.74,6,23,23,0,0,0-2.17,7.16,68.74,68.74,0,0,0-.7,10.49Z"/><path class="cls-1" d="M558.67,384.15H579.3v1.4q0,4.74-5,11.46-3.87,5-12.86,8.64a35.15,35.15,0,0,1-8.06,2.22,60.61,60.61,0,0,1-9.59.71,48.3,48.3,0,0,1-18.32-3.28,35.22,35.22,0,0,1-13.17-9,48.89,48.89,0,0,1-8-14.25,48.19,48.19,0,0,1-2.83-16.54,46.79,46.79,0,0,1,11.51-31.61q10.88-12.57,30.27-12.57a45.14,45.14,0,0,1,10,1.06,34.66,34.66,0,0,1,8.44,3,36.13,36.13,0,0,1,8.1,5.7,25.92,25.92,0,0,1,5.35,7,45.78,45.78,0,0,1,3.47,10.67,66.43,66.43,0,0,1,1.26,13.41v5H521.92A42.34,42.34,0,0,0,523.67,379a27.82,27.82,0,0,0,4.5,9l-.06-.06a25.78,25.78,0,0,0,7.72,6.08,19.87,19.87,0,0,0,9.11,2.16q6.84,0,10.87-3.33c1.91-1.56,2.86-4,2.86-7.25Zm1.06-28.28v-1.05A23.59,23.59,0,0,0,557.39,344v.06a28.14,28.14,0,0,0-3.07-5,10.54,10.54,0,0,0-3.07-2.75,19.94,19.94,0,0,0-9.46-2.57q-5.5,0-11.69,6a20.13,20.13,0,0,0-4.27,6.49,49,49,0,0,0-3,9.64Zm-36.18-43.59,22.68-24.95H568l-26.23,24.95Z"/><path class="cls-2" d="M426.38,101.76A101,101,0,0,1,325.38,202h-46a94.46,94.46,0,0,0-58.26,20.11L188.07,248a18.92,18.92,0,0,1-30.59-14.9V200.74a26.37,26.37,0,0,1,25.74-26.45,122.81,122.81,0,0,0,14.06-1,132.25,132.25,0,0,0,49.95-17.66,165.64,165.64,0,0,0,21.61-15.4,192.58,192.58,0,0,0,19-18.31l4.37-4.92,4.23-5,4-4.83c1.37-1.57,2.72-3.16,4.12-4.71a196.64,196.64,0,0,1,17.67-17.46c3.16-2.63,6.33-5.24,9.67-7.59a110.58,110.58,0,0,1,10.28-6.47A67.32,67.32,0,0,1,364.54,63a44.48,44.48,0,0,1,11.58-.18,38.5,38.5,0,0,1,28.51,18.26,44.12,44.12,0,0,1,6.75,23.07,42.26,42.26,0,0,1-1.68,12.3A43.59,43.59,0,0,1,404.48,128a40.33,40.33,0,0,0,3.91-5.15c.62-.9,1.11-1.86,1.67-2.8s1-1.94,1.43-3a44.59,44.59,0,0,0,3.36-12.77A47.79,47.79,0,0,0,410,78.08a52.08,52.08,0,0,0-3.56-5.89A46.81,46.81,0,0,0,402,66.86a44.21,44.21,0,0,0-5.24-4.61c-.92-.73-1.92-1.35-2.89-2s-2-1.24-3-1.76a48.78,48.78,0,0,0-27.34-5.11,74.57,74.57,0,0,0-26.24,7.88,123.84,123.84,0,0,0-22.37,14.82,189,189,0,0,0-19.08,18.32c-1.48,1.63-2.91,3.29-4.36,4.93l-4.22,5-4,4.8L279,113.83a205.86,205.86,0,0,1-17.77,17.44,174.36,174.36,0,0,1-19.84,14.79,130.83,130.83,0,0,1-45.58,18.13q-4.5.85-9.06,1.36a26.44,26.44,0,0,1-29.3-26.32V18.92A18.92,18.92,0,0,1,176.4,0H324.18c52.48,0,96.76,40.26,101.73,91.42a2.45,2.45,0,0,1,0,.27A95.83,95.83,0,0,1,426.38,101.76Z"/><path class="cls-3" d="M176.49,243.09a10.28,10.28,0,0,1-7-2.8,9.58,9.58,0,0,1-3-7.16V200.74a17.42,17.42,0,0,1,16.9-17.45,133.69,133.69,0,0,0,15.09-1.13,142,142,0,0,0,53.36-18.84,175.89,175.89,0,0,0,22.79-16.24,203.63,203.63,0,0,0,19.9-19.14l4.61-5.2,4.23-5,4-4.8,1.22-1.4c.9-1,1.8-2.08,2.72-3.1a187.34,187.34,0,0,1,16.8-16.62c3.17-2.64,6-5,9-7.1a103.38,103.38,0,0,1,9.46-6,58.33,58.33,0,0,1,19.27-6.83,35.48,35.48,0,0,1,5.15-.37,37.24,37.24,0,0,1,4.09.23l.19,0a29.67,29.67,0,0,1,4.16.79,30.69,30.69,0,0,1,4,1.42l.17.07A30.28,30.28,0,0,1,397,85.83a35.28,35.28,0,0,1,5.4,18.41c0,3.38.46,7,0,10.08a175.52,175.52,0,0,1-4.16,22.46c0,.06-2.9,6.16-2.86,6.11-4.56,12-9.68,21.25-14.55,27.24C365.32,189.2,350,193,325.38,193h-46a103.9,103.9,0,0,0-63.81,22L182.52,241A9.63,9.63,0,0,1,176.49,243.09Z"/><path class="cls-1" d="M397.15,153.13c-6.67-6.33,1.33-17.67,7.33-25.13a40.33,40.33,0,0,0,3.91-5.15c.62-.9,1.11-1.86,1.67-2.8s1-1.94,1.43-3a44.59,44.59,0,0,0,3.36-12.77A47.79,47.79,0,0,0,410,78.08a52.08,52.08,0,0,0-3.56-5.89A46.81,46.81,0,0,0,402,66.86a44.21,44.21,0,0,0-5.24-4.61c-.92-.73-1.92-1.35-2.89-2s-2-1.24-3-1.76a48.78,48.78,0,0,0-27.34-5.11,74.57,74.57,0,0,0-26.24,7.88,123.84,123.84,0,0,0-22.37,14.82,189,189,0,0,0-19.08,18.32c-1.48,1.63-2.91,3.29-4.36,4.93l-4.22,5-4,4.8L279,113.83a205.86,205.86,0,0,1-17.77,17.44,174.36,174.36,0,0,1-19.84,14.79,130.83,130.83,0,0,1-45.58,18.13q-4.5.85-9.06,1.36a26.44,26.44,0,0,1-29.3-26.32V18.92A18.92,18.92,0,0,1,176.4,0H324.18c52.48,0,96.76,40.26,101.73,91.42a2.45,2.45,0,0,1,0,.27C429.92,138.46,403.8,159.45,397.15,153.13Z"/><path class="cls-4" d="M183.83,156.71a17.2,17.2,0,0,1-12.21-5.08,17.42,17.42,0,0,1-5.14-12.4V18.92A9.93,9.93,0,0,1,176.4,9H324.18A94.19,94.19,0,0,1,407,59.21a49.75,49.75,0,0,0-4.85-4.12c-.92-.72-1.79-1.3-2.57-1.82l-.92-.62-.81-.48c-.86-.53-1.85-1.13-3-1.69a56.66,56.66,0,0,0-26.47-6.35c-1.95,0-3.92.1-5.85.28-9.51.85-19.14,3.72-29.36,8.77a131.42,131.42,0,0,0-24.09,15.93,198.91,198.91,0,0,0-20.05,19.24c-1,1.12-2,2.26-3,3.4l-1.56,1.78-4.22,5-4,4.72-4,4.57a195,195,0,0,1-16.95,16.63,165.43,165.43,0,0,1-18.78,14,121.25,121.25,0,0,1-42.37,16.87c-2.77.53-5.59.95-8.43,1.27A18.06,18.06,0,0,1,183.83,156.71Z"/></g></g></svg>